<svg width="260" height="130" viewBox="0 0 180 90" fill="none" xmlns="http://www.w3.org/2000/svg">
  <defs>
    <style>
      .dark { fill: #4b2c7a; }
      .mid { fill: #7b55a7; }
      .orange { fill: #f26927; }
      .text { font-family: 'Space Grotesk', 'Work Sans', system-ui, sans-serif; font-weight: 700; letter-spacing: 1px; }
    </style>
  </defs>
  <!-- mark -->
  <g transform="translate(20 6)">
    <path class="dark" d="M16 10h14l-9 20H7l9-20Z"/>
    <path class="mid" d="M34 10h14l-9 20H25l9-20Z" opacity="0.9"/>
    <path class="orange" d="M52 10h12l-10 11 10 11H52l-9-11 9-11Z"/>
    <path class="mid" d="M66 10h18c7 0 11.5 3.5 11.5 9.4 0 6-4.5 10.6-11.5 10.6H62l4-20Z" opacity="0.9"/>
    <path class="orange" d="M78 16h9c2 0 3 .8 3 2.6 0 1.9-1 3.2-3 3.2H74l4-5.8Z" opacity="0.9"/>
  </g>
  <!-- wordmark -->
  <text class="text dark" x="20" y="74" font-size="18">INSTA</text>
  <text class="text mid" x="78" y="74" font-size="18">PAY</text>
</svg>
