<svg width="220" height="28" viewBox="0 0 220 28" fill="none" xmlns="http://www.w3.org/2000/svg">
  <g fill="#8ea3b5">
    <!-- Facebook -->
    <path d="M14 4c-5.5 0-10 4.5-10 10s4.5 10 10 10c5.6 0 10-4.5 10-10S19.6 4 14 4Zm1.2 6.4h2V8h-2.5c-2.6 0-3.7 1.3-3.7 3.5v1.1H9.7V15h1.3v5h2.4v-5h1.8l.2-2.4h-2V11c0-.7.2-1.6 1.6-1.6Z"/>
    <!-- Link -->
    <path d="M36.6 14.9a6.1 6.1 0 0 1-1.7 4.3 6 6 0 0 1-8.5 0l-1.3-1.3 1.7-1.7 1.3 1.3a3.6 3.6 0 0 0 5 0 3.6 3.6 0 0 0 0-5l-1.2-1.3 1.7-1.7 1.2 1.3c1.2 1.2 1.8 2.8 1.8 4.4Zm-13.2-1.8a6 6 0 0 1 0-8.5 6 6 0 0 1 8.5 0l1.3 1.3-1.7 1.7-1.3-1.3a3.6 3.6 0 0 0-5 0 3.6 3.6 0 0 0 0 5l1.2 1.3-1.7 1.7-1.2-1.3Z"/>
    <!-- TikTok -->
    <path d="M51.5 8.2c1.1 2 2.8 3.4 5 3.6v2.7c-1.9-.2-3.5-1-5-2.4V17c0 3.1-2.2 5.4-5.4 5.4-1 0-2-.2-2.7-.7v-3.1c.6.5 1.5.8 2.4.8 1.7 0 2.8-1.3 2.8-3.1v-8h2.9Z"/>
    <!-- Instagram -->
    <path d="M70 7a6 6 0 0 1 6 6v6a6 6 0 0 1-6 6h-6a6 6 0 0 1-6-6v-6a6 6 0 0 1 6-6h6Zm0 2h-6c-2.3 0-4 1.7-4 4v6c0 2.3 1.7 4 4 4h6c2.3 0 4-1.7 4-4v-6c0-2.3-1.7-4-4-4Zm-3 3.5a3.5 3.5 0 1 1 0 7 3.5 3.5 0 0 1 0-7Zm4.8-2.6a1 1 0 1 1-2 0 1 1 0 0 1 2 0Z"/>
    <!-- Phone -->
    <path d="M89.4 10.3c.7-.7 1.7-.8 2.5-.1l2 1.7c.7.6.8 1.6.3 2.4l-1.2 1.8a2 2 0 0 1-2.6.6 18.6 18.6 0 0 1-7.7-7.7 2 2 0 0 1 .6-2.6l1.8-1.2c.8-.5 1.8-.4 2.4.3l1.7 2c.7.8.6 1.8-.1 2.5l-.7.7c.7 1.4 1.9 2.6 3.3 3.3l.7-.7Z"/>
    <!-- WhatsApp -->
    <path d="M110 8a8.5 8.5 0 0 1 8.5 8.6c0 4.8-3.7 8.6-8.5 8.6-1.5 0-3-.4-4.3-1l-3.2 1 1-3.1a8.5 8.5 0 0 1 6.5-14.1Zm0 2.2a6.3 6.3 0 0 0-5.1 10l-.5 1.7 1.7-.5c.8.5 1.8.7 2.8.7a6.3 6.3 0 0 0 6.3-6.4 6.3 6.3 0 0 0-6.3-6.4Zm3.5 6.3c-.1-.2-.5-.3-1-.6-.5-.2-.9-.2-1 .1-.1.2-.3.6-.5.8-.2.3-.3.3-.6.2-.3 0-1.1-.4-2-1.3-.7-.7-1.2-1.6-1.3-1.8-.1-.3 0-.4.2-.5l.5-.5.2-.5-.3-.8-.4-1c-.1-.2-.2-.4-.5-.4h-.7c-.3 0-.6.3-.8.6-.3.6-.8 1.6-.1 3a8.8 8.8 0 0 0 2.4 3.2 9.4 9.4 0 0 0 3.8 2c.4.1.8.1 1.1.1.4 0 1 0 1.4-.6.3-.6.3-1.1.3-1.2 0-.1-.1-.2-.3-.4Z"/>
  </g>
</svg>
